<?xml version="1.0" encoding="UTF-8" standalone="no"?> <svg width="64" height="64" viewBox="0 0 64 64" fill="none" xmlns="http://www.w3.org/2000/svg">
<path d="M52.6 50.8299C57.2954 45.6827 59.8984 38.967 59.8984 31.9999C59.8984 25.0328 57.2954 18.3171 52.6 13.1699L54.88 10.8799C55.1134 10.6465 55.2445 10.33 55.2445 9.9999C55.2445 9.66983 55.1134 9.35329 54.88 9.1199C54.6466 8.88651 54.33 8.75539 54 8.75539C53.6699 8.75539 53.3534 8.88651 53.12 9.1199L50.84 11.3999C45.6854 6.71152 38.9678 4.11353 32 4.11353C25.0321 4.11353 18.3146 6.71152 13.16 11.3999L10.88 9.1199C10.6466 8.88651 10.33 8.75539 9.99999 8.75539C9.66992 8.75539 9.35338 8.88651 9.11999 9.1199C8.8866 9.35329 8.75548 9.66983 8.75548 9.9999C8.75548 10.33 8.8866 10.6465 9.11999 10.8799L11.4 13.1699C6.70455 18.3171 4.10156 25.0328 4.10156 31.9999C4.10156 38.967 6.70455 45.6827 11.4 50.8299L9.11999 53.1199C9.00388 53.2352 8.91174 53.3723 8.84885 53.5233C8.78597 53.6743 8.7536 53.8363 8.7536 53.9999C8.7536 54.1635 8.78597 54.3255 8.84885 54.4765C8.91174 54.6275 9.00388 54.7646 9.11999 54.8799C9.23455 54.9972 9.37143 55.0904 9.52255 55.1541C9.67368 55.2177 9.836 55.2505 9.99999 55.2505C10.164 55.2505 10.3263 55.2177 10.4774 55.1541C10.6285 55.0904 10.7654 54.9972 10.88 54.8799L13.17 52.5999C18.3172 57.2953 25.0329 59.8983 32 59.8983C38.9671 59.8983 45.6828 57.2953 50.83 52.5999L53.12 54.8799C53.2346 54.9972 53.3714 55.0904 53.5225 55.1541C53.6737 55.2177 53.836 55.2505 54 55.2505C54.164 55.2505 54.3263 55.2177 54.4774 55.1541C54.6285 55.0904 54.7654 54.9972 54.88 54.8799C54.9961 54.7646 55.0882 54.6275 55.1511 54.4765C55.214 54.3255 55.2464 54.1635 55.2464 53.9999C55.2464 53.8363 55.214 53.6743 55.1511 53.5233C55.0882 53.3723 54.9961 53.2352 54.88 53.1199L52.6 50.8299ZM22.22 22.2199C24.1542 20.2859 26.6185 18.969 29.3012 18.4355C31.9839 17.902 34.7645 18.176 37.2915 19.2228C39.8185 20.2697 41.9784 22.0423 43.4979 24.3166C45.0175 26.5909 45.8286 29.2647 45.8286 31.9999C45.8286 34.7351 45.0175 37.4089 43.4979 39.6832C41.9784 41.9575 39.8185 43.7301 37.2915 44.777C34.7645 45.8238 31.9839 46.0978 29.3012 45.5643C26.6185 45.0308 24.1542 43.7139 22.22 41.7799C19.6308 39.1836 18.1768 35.6666 18.1768 31.9999C18.1768 28.3332 19.6308 24.8162 22.22 22.2199V22.2199ZM32 6.5899C38.3105 6.58302 44.3968 8.92914 49.07 13.1699L42.62 19.6199C39.6604 17.0889 35.8942 15.6981 32 15.6981C28.1058 15.6981 24.3396 17.0889 21.38 19.6199L14.93 13.1799C19.6016 8.9355 25.6882 6.58575 32 6.5899V6.5899ZM15 50.8099L21.43 44.3799C24.3841 46.9224 28.1524 48.3208 32.05 48.3208C35.9476 48.3208 39.7159 46.9224 42.67 44.3799L49.12 50.8299C44.4421 55.0567 38.3608 57.3951 32.0561 57.3914C25.7515 57.3877 19.6729 55.0422 15 50.8099V50.8099Z" fill="black"/>
</svg>
