<?xml version="1.0" encoding="UTF-8" standalone="no"?> <svg height="512" viewBox="0 0 512 512" width="512" xmlns="http://www.w3.org/2000/svg"><g id="Outline"><path d="m307.543 368h124.457v16h16v-24a8 8 0 0 0 -8-8h-368a8 8 0 0 0 -8 8v24h16v-16h124.457l-43.947 117.191a8 8 0 0 0 7.49 10.809h176a8 8 0 0 0 7.49-10.809zm.913 48h-104.912l6-16h92.912zm6 16 6 16h-128.912l6-16zm-24-64 6 16h-80.912l6-16zm-110.912 112 6-16h140.912l6 16z"/><path d="m82 416c16.561 0 25.223-4.779 32.864-9 6.813-3.759 12.7-7 25.136-7s18.321 3.246 25.133 7c2.358 1.3 4.8 2.646 7.564 3.9l6.612-14.57c-2.2-1-4.261-2.136-6.447-3.342-7.645-4.21-16.306-8.988-32.862-8.988s-25.223 4.779-32.864 9c-6.813 3.759-12.7 7-25.136 7s-18.321-3.246-25.133-7c-7.642-4.216-16.3-9-32.864-9v16c12.439 0 18.322 3.246 25.135 7 7.638 4.221 16.3 9 32.862 9z"/><path d="m140 424c-16.56 0-25.223 4.779-32.864 9-6.813 3.759-12.7 7-25.136 7s-18.321-3.246-25.133-7c-7.642-4.216-16.3-9-32.864-9v16c12.439 0 18.322 3.246 25.135 7 7.641 4.216 16.3 9 32.862 9s25.223-4.779 32.864-9c6.813-3.759 12.7-7 25.136-7a43.616 43.616 0 0 1 17 2.941l6-14.836a59.622 59.622 0 0 0 -23-4.105z"/><path d="m455.136 393c-6.812 3.759-12.7 7-25.133 7s-18.323-3.246-25.136-7c-7.641-4.216-16.3-9-32.864-9s-25.22 4.778-32.862 8.994c-2.186 1.206-4.25 2.345-6.447 3.342l6.612 14.57c2.766-1.256 5.206-2.6 7.564-3.9 6.812-3.758 12.695-7 25.133-7s18.323 3.246 25.136 7c7.641 4.216 16.3 9 32.864 9s25.221-4.779 32.862-9c6.813-3.759 12.7-7 25.135-7v-16.006c-16.561 0-25.222 4.779-32.864 9z"/><path d="m430 440c-12.44 0-18.323-3.246-25.136-7-7.641-4.216-16.3-9-32.864-9a59.622 59.622 0 0 0 -23 4.105l6 14.836a43.616 43.616 0 0 1 17-2.941c12.439 0 18.323 3.246 25.136 7 7.641 4.216 16.3 9 32.864 9s25.221-4.779 32.862-9c6.813-3.759 12.7-7 25.135-7v-16c-16.561 0-25.222 4.779-32.864 9-6.809 3.754-12.692 7-25.133 7z"/><path d="m296 336v-24h16v-16h-112v16h16v24h16v-24h16v24h16v-24h16v24z"/><path d="m192 88h16v16h-16z"/><path d="m224 88h16v16h-16z"/><path d="m272 88h16v16h-16z"/><path d="m304 88h16v16h-16z"/><path d="m192 120h16v16h-16z"/><path d="m224 120h16v16h-16z"/><path d="m272 120h16v16h-16z"/><path d="m304 120h16v16h-16z"/><path d="m192 160h16v16h-16z"/><path d="m224 160h16v16h-16z"/><path d="m272 160h16v16h-16z"/><path d="m304 160h16v16h-16z"/><path d="m192 192h16v16h-16z"/><path d="m224 192h16v16h-16z"/><path d="m272 192h16v16h-16z"/><path d="m304 192h16v16h-16z"/><path d="m192 232h16v16h-16z"/><path d="m224 232h16v16h-16z"/><path d="m272 232h16v16h-16z"/><path d="m304 232h16v16h-16z"/><path d="m192 264h16v16h-16z"/><path d="m224 264h16v16h-16z"/><path d="m272 264h16v16h-16z"/><path d="m304 264h16v16h-16z"/><path d="m104 211.313 48-48v172.687h16v-272h176v272h16v-172.686l48 48v124.686h16v-128a8 8 0 0 0 -2.343-5.657l-61.657-61.657v-84.686a8 8 0 0 0 -8-8h-16v-16h16v-16h-112v16h16v16h-40v-16h-16v16h-16v-24h-16v24h-8a8 8 0 0 0 -8 8v84.686l-61.657 61.657a8 8 0 0 0 -2.343 5.657v128h16zm168-179.313h48v16h-48z"/><path d="m120 232h16v16h-16z"/><path d="m120 264h16v16h-16z"/><path d="m120 296h16v16h-16z"/><path d="m376 232h16v16h-16z"/><path d="m376 264h16v16h-16z"/><path d="m376 296h16v16h-16z"/></g></svg>