<?xml version="1.0" encoding="UTF-8" standalone="no"?> <svg xmlns="http://www.w3.org/2000/svg" viewBox="0 0 64 64"><title>toy, train, baby, railroad, </title><g id="Expand"><path d="M57.78,43H56V39.28l2.64.66a1.24,1.24,0,0,0,.27,0,1.11,1.11,0,0,0,.67-.23l.42-.38V33.13a1.09,1.09,0,0,0-.42-.87l-.47-.32L56,32.72V29.5a2.5,2.5,0,0,0-2.5-2.5H51V25.25A2.25,2.25,0,0,0,48.78,23h-5.5A2.25,2.25,0,0,0,41,25.25V27H37V21h.75A2.25,2.25,0,0,0,40,18.75v-1.5A2.25,2.25,0,0,0,37.78,15h-7.5A2.25,2.25,0,0,0,28,17.25v1.5A2.25,2.25,0,0,0,30.28,21H31v6H25V12h.5A1.5,1.5,0,0,0,27,10.5v-3A1.5,1.5,0,0,0,25.53,6h-22A1.5,1.5,0,0,0,2,7.5v3A1.5,1.5,0,0,0,3.53,12H4V43h-.9A1.1,1.1,0,0,0,2,44.1v9.8A1.1,1.1,0,0,0,3.13,55h3A9.49,9.49,0,0,0,23,54.72V55h6.09a6,6,0,0,0,11.82,0h2.18a6,6,0,0,0,11.82,0h5a1.1,1.1,0,0,0,.88-.44l.32-.49ZM58,34.28v3.44l-2-.5V34.78Zm-15-9a.25.25,0,0,1,.25-.25h5.5a.25.25,0,0,1,.25.25V27H43ZM30.28,19a.25.25,0,0,1-.25-.25v-1.5a.25.25,0,0,1,.25-.25h7.5a.25.25,0,0,1,.25.25v1.5a.25.25,0,0,1-.25.25h-7.5ZM33,21h2v6H33Zm-2,8h22.5a.5.5,0,0,1,.5.5V43H25V29ZM4,8H25v2H4Zm2,4H23V43H20.34a9.41,9.41,0,0,0-5.81-2,9.52,9.52,0,0,0-4.75,1.27A11.21,11.21,0,0,0,8.71,43H6ZM4,53V45H6.81A9.5,9.5,0,0,0,5,50.5,9.38,9.38,0,0,0,5.38,53Zm10.5,5A7.5,7.5,0,1,1,22,50.5,7.51,7.51,0,0,1,14.53,58ZM35,58a4,4,0,1,1,4-4A4,4,0,0,1,35,58Zm14,0a4,4,0,1,1,4-4A4,4,0,0,1,49,58Zm5.91-5a6,6,0,0,0-11.82,0H40.94a6,6,0,0,0-11.82,0H23.69A9.37,9.37,0,0,0,24,50.5,9.48,9.48,0,0,0,22.27,45h34l2.4,8Z"/><path d="M14.53,45.25a5.25,5.25,0,1,0,5.25,5.25A5.26,5.26,0,0,0,14.53,45.25Zm0,8.5a3.25,3.25,0,1,1,3.25-3.25A3.26,3.26,0,0,1,14.53,53.75Z"/><path d="M35,52a2,2,0,1,0,2,2A2,2,0,0,0,35,52Zm0,3V54h0Z"/><path d="M49,52a2,2,0,1,0,2,2A2,2,0,0,0,49,52Zm0,3V54h0Z"/><path d="M21,14H8V26H21ZM19,24H10V16h9Z"/><path d="M14.53,60H5a1,1,0,0,0,0,2H59a1,1,0,0,0,0-2H14.53Z"/><path d="M28,33H51a1,1,0,0,0,0-2H28a1,1,0,0,0,0,2Z"/></g></svg>